<svg width="600" height="600" viewBox="0 0 600 600" fill="none" xmlns="http://www.w3.org/2000/svg">
<rect width="600" height="600" fill="#E8E918"/>
<path d="M152.315 305.498H552.04V461.996C552.04 484.087 534.131 501.996 512.04 501.996H152.315V305.498Z" fill="#073D3D"/>
<path d="M333.888 464.311C325.28 464.311 317.629 462.462 310.934 458.764C304.239 454.948 298.979 449.699 295.153 443.02C291.447 436.34 289.594 428.707 289.594 420.119C289.594 411.054 291.567 403.122 295.512 396.323C299.457 389.405 304.897 383.978 311.831 380.041C318.765 376.105 326.715 374.137 335.681 374.137C344.409 374.137 352.06 376.046 358.635 379.863C365.33 383.56 370.531 388.749 374.237 395.428C378.063 401.988 379.975 409.622 379.975 418.329C379.975 427.275 378.003 435.207 374.058 442.125C370.112 449.043 364.673 454.47 357.739 458.407C350.924 462.343 342.974 464.311 333.888 464.311ZM335.681 454.649C341.061 454.649 345.784 453.218 349.848 450.355C353.913 447.493 357.081 443.497 359.353 438.368C361.744 433.239 362.939 427.335 362.939 420.655C362.939 413.379 361.684 406.998 359.173 401.511C356.782 396.025 353.375 391.731 348.952 388.629C344.648 385.409 339.627 383.799 333.888 383.799C328.508 383.799 323.786 385.23 319.721 388.093C315.657 390.955 312.429 394.951 310.038 400.08C307.766 405.209 306.63 411.113 306.63 417.793C306.63 424.949 307.826 431.331 310.217 436.937C312.727 442.423 316.135 446.777 320.439 449.998C324.862 453.099 329.943 454.649 335.681 454.649Z" fill="#F8EE00"/>
<path d="M419.678 464.311L379.508 381.294H385.426V391.671L372.694 378.789V376.284H412.505V378.789L399.414 390.24H397.621V382.904L428.465 446.598H423.444L445.322 376.284H450.701L454.467 392.387L422.906 464.311H419.678ZM474.731 464.311L446.577 396.681L449.088 376.284H455.005L484.236 446.419H479.394L502.706 381.294L502.886 390.061H500.913L488.002 378.789V376.284H525.122V378.789L512.39 391.492V381.294H518.308L477.959 464.311H474.731Z" fill="#F8EE00"/>
<path d="M181.033 462.225V459.771L195.275 448.155L192.656 452.736V388.441L199.695 395.476H179.232V392.694L192.656 379.443V370.772C192.656 363.573 193.857 357.302 196.258 351.958C198.768 346.614 202.205 342.469 206.571 339.524C211.045 336.579 216.229 335.107 222.123 335.107C226.27 335.107 230.362 335.707 234.4 336.907C238.438 337.997 242.094 339.688 245.368 341.978L237.019 360.138H233.909L217.703 339.524H232.6V349.667C231.072 347.486 229.435 346.014 227.688 345.25C225.942 344.378 223.814 343.941 221.304 343.941C217.703 343.941 214.92 345.796 212.955 349.504C210.991 353.103 210.009 358.556 210.009 365.864V453.227L207.553 448.809L226.87 459.771V462.225H181.033ZM235.055 396.948L204.77 392.204V384.678L234.564 380.752H236.856V395.803L235.055 396.948Z" fill="#F8EE00"/>
<path d="M245.701 462.226V459.772L259.943 448.156L257.324 452.737V353.104L264.363 364.065L245.538 349.505V346.724L269.584 337.071H273.677V453.064L271.221 448.32L285.3 459.772V462.226H245.701Z" fill="#F8EE00"/>
<path d="M47 139C47 116.909 64.9086 99 87 99H448.071V295.498H47V139Z" fill="#073D3D"/>
<mask id="path-6-outside-1_205_3" maskUnits="userSpaceOnUse" x="71.9712" y="123.583" width="352" height="157" fill="black">
<rect fill="white" x="71.9712" y="123.583" width="352" height="157"/>
<path d="M117.13 247.904C110.894 247.904 105.15 246.76 99.8992 244.47C94.6479 242.181 90.0531 238.965 86.1147 234.822C82.2856 230.679 79.2771 225.882 77.0891 220.431C75.0105 214.98 73.9712 209.093 73.9712 202.77V199.826C73.9712 193.612 75.0105 187.779 77.0891 182.328C79.1677 176.877 82.0668 172.08 85.7865 167.938C89.6155 163.795 94.1009 160.579 99.2428 158.289C104.494 155.891 110.292 154.692 116.637 154.692C123.311 154.692 129.383 156.109 134.853 158.943C140.323 161.669 144.808 165.975 148.309 171.862C151.81 177.749 153.779 185.381 154.217 194.757L147.653 184.291V125.583H163.406V244.961H150.935V206.204H155.529C155.092 216.125 153.013 224.192 149.294 230.406C145.574 236.512 140.87 240.981 135.181 243.816C129.601 246.541 123.584 247.904 117.13 247.904ZM119.263 234.168C124.624 234.168 129.492 232.968 133.868 230.57C138.244 228.171 141.745 224.737 144.371 220.267C146.996 215.689 148.309 210.347 148.309 204.241V196.719C148.309 190.723 146.941 185.653 144.206 181.511C141.581 177.259 138.025 174.043 133.54 171.862C129.164 169.573 124.35 168.428 119.099 168.428C113.301 168.428 108.159 169.791 103.673 172.516C99.2975 175.242 95.8513 179.058 93.3351 183.964C90.9283 188.87 89.7249 194.648 89.7249 201.298C89.7249 207.948 90.983 213.781 93.4992 218.796C96.0154 223.702 99.5163 227.517 104.002 230.243C108.487 232.859 113.574 234.168 119.263 234.168Z"/>
<path d="M179.801 244.961V157.635H192.273V193.612H191.617C191.617 180.857 194.407 171.535 199.986 165.648C205.675 159.652 214.153 156.654 225.422 156.654H228.375V170.718H222.796C214.044 170.718 207.316 173.062 202.612 177.749C197.907 182.328 195.555 188.979 195.555 197.7V244.961H179.801Z"/>
<path d="M274.372 247.904C266.714 247.904 259.986 246.596 254.188 243.979C248.39 241.363 243.467 237.929 239.419 233.677C235.48 229.316 232.472 224.465 230.393 219.123C228.424 213.781 227.44 208.33 227.44 202.77V199.826C227.44 194.266 228.479 188.815 230.557 183.473C232.636 178.022 235.699 173.171 239.747 168.919C243.795 164.558 248.718 161.124 254.516 158.616C260.314 156 266.933 154.692 274.372 154.692C281.812 154.692 288.43 156 294.229 158.616C300.027 161.124 304.95 164.558 308.998 168.919C313.046 173.171 316.109 178.022 318.187 183.473C320.266 188.815 321.305 194.266 321.305 199.826V202.77C321.305 208.33 320.266 213.781 318.187 219.123C316.218 224.465 313.21 229.316 309.162 233.677C305.223 237.929 300.355 241.363 294.557 243.979C288.759 246.596 282.03 247.904 274.372 247.904ZM274.372 233.841C280.936 233.841 286.516 232.423 291.111 229.589C295.815 226.645 299.37 222.72 301.777 217.815C304.294 212.909 305.552 207.403 305.552 201.298C305.552 195.084 304.294 189.524 301.777 184.618C299.261 179.712 295.651 175.842 290.947 173.007C286.352 170.172 280.827 168.755 274.372 168.755C268.027 168.755 262.502 170.172 257.798 173.007C253.094 175.842 249.484 179.712 246.968 184.618C244.451 189.524 243.193 195.084 243.193 201.298C243.193 207.403 244.397 212.909 246.803 217.815C249.32 222.72 252.875 226.645 257.47 229.589C262.174 232.423 267.808 233.841 274.372 233.841Z"/>
<path d="M331.772 277.667V157.635H344.244V195.411L341.29 195.084C341.837 185.708 343.806 178.076 347.197 172.189C350.698 166.193 355.238 161.778 360.818 158.943C366.397 156.109 372.469 154.692 379.033 154.692C385.378 154.692 391.122 155.891 396.264 158.289C401.515 160.688 406 163.958 409.72 168.101C413.44 172.244 416.284 177.041 418.253 182.492C420.222 187.943 421.207 193.721 421.207 199.826V202.77C421.207 208.875 420.168 214.653 418.089 220.104C416.01 225.555 413.057 230.352 409.228 234.495C405.508 238.637 401.023 241.908 395.771 244.307C390.629 246.705 384.941 247.904 378.705 247.904C372.469 247.904 366.507 246.541 360.818 243.816C355.129 241.09 350.425 236.675 346.705 230.57C342.985 224.465 340.852 216.452 340.305 206.531L347.526 219.613V277.667H331.772ZM376.243 234.168C382.151 234.168 387.293 232.805 391.669 230.079C396.045 227.245 399.436 223.375 401.843 218.469C404.25 213.454 405.453 207.73 405.453 201.298C405.453 194.757 404.25 189.033 401.843 184.127C399.436 179.221 396.045 175.405 391.669 172.68C387.293 169.845 382.151 168.428 376.243 168.428C370.992 168.428 366.124 169.627 361.638 172.026C357.153 174.315 353.543 177.695 350.808 182.165C348.182 186.526 346.869 191.813 346.869 198.027V205.55C346.869 211.546 348.237 216.67 350.972 220.922C353.707 225.173 357.317 228.444 361.802 230.733C366.288 233.023 371.101 234.168 376.243 234.168Z"/>
</mask>
<path d="M117.13 247.904C110.894 247.904 105.15 246.76 99.8992 244.47C94.6479 242.181 90.0531 238.965 86.1147 234.822C82.2856 230.679 79.2771 225.882 77.0891 220.431C75.0105 214.98 73.9712 209.093 73.9712 202.77V199.826C73.9712 193.612 75.0105 187.779 77.0891 182.328C79.1677 176.877 82.0668 172.08 85.7865 167.938C89.6155 163.795 94.1009 160.579 99.2428 158.289C104.494 155.891 110.292 154.692 116.637 154.692C123.311 154.692 129.383 156.109 134.853 158.943C140.323 161.669 144.808 165.975 148.309 171.862C151.81 177.749 153.779 185.381 154.217 194.757L147.653 184.291V125.583H163.406V244.961H150.935V206.204H155.529C155.092 216.125 153.013 224.192 149.294 230.406C145.574 236.512 140.87 240.981 135.181 243.816C129.601 246.541 123.584 247.904 117.13 247.904ZM119.263 234.168C124.624 234.168 129.492 232.968 133.868 230.57C138.244 228.171 141.745 224.737 144.371 220.267C146.996 215.689 148.309 210.347 148.309 204.241V196.719C148.309 190.723 146.941 185.653 144.206 181.511C141.581 177.259 138.025 174.043 133.54 171.862C129.164 169.573 124.35 168.428 119.099 168.428C113.301 168.428 108.159 169.791 103.673 172.516C99.2975 175.242 95.8513 179.058 93.3351 183.964C90.9283 188.87 89.7249 194.648 89.7249 201.298C89.7249 207.948 90.983 213.781 93.4992 218.796C96.0154 223.702 99.5163 227.517 104.002 230.243C108.487 232.859 113.574 234.168 119.263 234.168Z" fill="#F8EE00"/>
<path d="M179.801 244.961V157.635H192.273V193.612H191.617C191.617 180.857 194.407 171.535 199.986 165.648C205.675 159.652 214.153 156.654 225.422 156.654H228.375V170.718H222.796C214.044 170.718 207.316 173.062 202.612 177.749C197.907 182.328 195.555 188.979 195.555 197.7V244.961H179.801Z" fill="#F8EE00"/>
<path d="M274.372 247.904C266.714 247.904 259.986 246.596 254.188 243.979C248.39 241.363 243.467 237.929 239.419 233.677C235.48 229.316 232.472 224.465 230.393 219.123C228.424 213.781 227.44 208.33 227.44 202.77V199.826C227.44 194.266 228.479 188.815 230.557 183.473C232.636 178.022 235.699 173.171 239.747 168.919C243.795 164.558 248.718 161.124 254.516 158.616C260.314 156 266.933 154.692 274.372 154.692C281.812 154.692 288.43 156 294.229 158.616C300.027 161.124 304.95 164.558 308.998 168.919C313.046 173.171 316.109 178.022 318.187 183.473C320.266 188.815 321.305 194.266 321.305 199.826V202.77C321.305 208.33 320.266 213.781 318.187 219.123C316.218 224.465 313.21 229.316 309.162 233.677C305.223 237.929 300.355 241.363 294.557 243.979C288.759 246.596 282.03 247.904 274.372 247.904ZM274.372 233.841C280.936 233.841 286.516 232.423 291.111 229.589C295.815 226.645 299.37 222.72 301.777 217.815C304.294 212.909 305.552 207.403 305.552 201.298C305.552 195.084 304.294 189.524 301.777 184.618C299.261 179.712 295.651 175.842 290.947 173.007C286.352 170.172 280.827 168.755 274.372 168.755C268.027 168.755 262.502 170.172 257.798 173.007C253.094 175.842 249.484 179.712 246.968 184.618C244.451 189.524 243.193 195.084 243.193 201.298C243.193 207.403 244.397 212.909 246.803 217.815C249.32 222.72 252.875 226.645 257.47 229.589C262.174 232.423 267.808 233.841 274.372 233.841Z" fill="#F8EE00"/>
<path d="M331.772 277.667V157.635H344.244V195.411L341.29 195.084C341.837 185.708 343.806 178.076 347.197 172.189C350.698 166.193 355.238 161.778 360.818 158.943C366.397 156.109 372.469 154.692 379.033 154.692C385.378 154.692 391.122 155.891 396.264 158.289C401.515 160.688 406 163.958 409.72 168.101C413.44 172.244 416.284 177.041 418.253 182.492C420.222 187.943 421.207 193.721 421.207 199.826V202.77C421.207 208.875 420.168 214.653 418.089 220.104C416.01 225.555 413.057 230.352 409.228 234.495C405.508 238.637 401.023 241.908 395.771 244.307C390.629 246.705 384.941 247.904 378.705 247.904C372.469 247.904 366.507 246.541 360.818 243.816C355.129 241.09 350.425 236.675 346.705 230.57C342.985 224.465 340.852 216.452 340.305 206.531L347.526 219.613V277.667H331.772ZM376.243 234.168C382.151 234.168 387.293 232.805 391.669 230.079C396.045 227.245 399.436 223.375 401.843 218.469C404.25 213.454 405.453 207.73 405.453 201.298C405.453 194.757 404.25 189.033 401.843 184.127C399.436 179.221 396.045 175.405 391.669 172.68C387.293 169.845 382.151 168.428 376.243 168.428C370.992 168.428 366.124 169.627 361.638 172.026C357.153 174.315 353.543 177.695 350.808 182.165C348.182 186.526 346.869 191.813 346.869 198.027V205.55C346.869 211.546 348.237 216.67 350.972 220.922C353.707 225.173 357.317 228.444 361.802 230.733C366.288 233.023 371.101 234.168 376.243 234.168Z" fill="#F8EE00"/>
<path d="M117.13 247.904C110.894 247.904 105.15 246.76 99.8992 244.47C94.6479 242.181 90.0531 238.965 86.1147 234.822C82.2856 230.679 79.2771 225.882 77.0891 220.431C75.0105 214.98 73.9712 209.093 73.9712 202.77V199.826C73.9712 193.612 75.0105 187.779 77.0891 182.328C79.1677 176.877 82.0668 172.08 85.7865 167.938C89.6155 163.795 94.1009 160.579 99.2428 158.289C104.494 155.891 110.292 154.692 116.637 154.692C123.311 154.692 129.383 156.109 134.853 158.943C140.323 161.669 144.808 165.975 148.309 171.862C151.81 177.749 153.779 185.381 154.217 194.757L147.653 184.291V125.583H163.406V244.961H150.935V206.204H155.529C155.092 216.125 153.013 224.192 149.294 230.406C145.574 236.512 140.87 240.981 135.181 243.816C129.601 246.541 123.584 247.904 117.13 247.904ZM119.263 234.168C124.624 234.168 129.492 232.968 133.868 230.57C138.244 228.171 141.745 224.737 144.371 220.267C146.996 215.689 148.309 210.347 148.309 204.241V196.719C148.309 190.723 146.941 185.653 144.206 181.511C141.581 177.259 138.025 174.043 133.54 171.862C129.164 169.573 124.35 168.428 119.099 168.428C113.301 168.428 108.159 169.791 103.673 172.516C99.2975 175.242 95.8513 179.058 93.3351 183.964C90.9283 188.87 89.7249 194.648 89.7249 201.298C89.7249 207.948 90.983 213.781 93.4992 218.796C96.0154 223.702 99.5163 227.517 104.002 230.243C108.487 232.859 113.574 234.168 119.263 234.168Z" stroke="#073D3D" stroke-width="4" mask="url(#path-6-outside-1_205_3)"/>
<path d="M179.801 244.961V157.635H192.273V193.612H191.617C191.617 180.857 194.407 171.535 199.986 165.648C205.675 159.652 214.153 156.654 225.422 156.654H228.375V170.718H222.796C214.044 170.718 207.316 173.062 202.612 177.749C197.907 182.328 195.555 188.979 195.555 197.7V244.961H179.801Z" stroke="#073D3D" stroke-width="4" mask="url(#path-6-outside-1_205_3)"/>
<path d="M274.372 247.904C266.714 247.904 259.986 246.596 254.188 243.979C248.39 241.363 243.467 237.929 239.419 233.677C235.48 229.316 232.472 224.465 230.393 219.123C228.424 213.781 227.44 208.33 227.44 202.77V199.826C227.44 194.266 228.479 188.815 230.557 183.473C232.636 178.022 235.699 173.171 239.747 168.919C243.795 164.558 248.718 161.124 254.516 158.616C260.314 156 266.933 154.692 274.372 154.692C281.812 154.692 288.43 156 294.229 158.616C300.027 161.124 304.95 164.558 308.998 168.919C313.046 173.171 316.109 178.022 318.187 183.473C320.266 188.815 321.305 194.266 321.305 199.826V202.77C321.305 208.33 320.266 213.781 318.187 219.123C316.218 224.465 313.21 229.316 309.162 233.677C305.223 237.929 300.355 241.363 294.557 243.979C288.759 246.596 282.03 247.904 274.372 247.904ZM274.372 233.841C280.936 233.841 286.516 232.423 291.111 229.589C295.815 226.645 299.37 222.72 301.777 217.815C304.294 212.909 305.552 207.403 305.552 201.298C305.552 195.084 304.294 189.524 301.777 184.618C299.261 179.712 295.651 175.842 290.947 173.007C286.352 170.172 280.827 168.755 274.372 168.755C268.027 168.755 262.502 170.172 257.798 173.007C253.094 175.842 249.484 179.712 246.968 184.618C244.451 189.524 243.193 195.084 243.193 201.298C243.193 207.403 244.397 212.909 246.803 217.815C249.32 222.72 252.875 226.645 257.47 229.589C262.174 232.423 267.808 233.841 274.372 233.841Z" stroke="#073D3D" stroke-width="4" mask="url(#path-6-outside-1_205_3)"/>
<path d="M331.772 277.667V157.635H344.244V195.411L341.29 195.084C341.837 185.708 343.806 178.076 347.197 172.189C350.698 166.193 355.238 161.778 360.818 158.943C366.397 156.109 372.469 154.692 379.033 154.692C385.378 154.692 391.122 155.891 396.264 158.289C401.515 160.688 406 163.958 409.72 168.101C413.44 172.244 416.284 177.041 418.253 182.492C420.222 187.943 421.207 193.721 421.207 199.826V202.77C421.207 208.875 420.168 214.653 418.089 220.104C416.01 225.555 413.057 230.352 409.228 234.495C405.508 238.637 401.023 241.908 395.771 244.307C390.629 246.705 384.941 247.904 378.705 247.904C372.469 247.904 366.507 246.541 360.818 243.816C355.129 241.09 350.425 236.675 346.705 230.57C342.985 224.465 340.852 216.452 340.305 206.531L347.526 219.613V277.667H331.772ZM376.243 234.168C382.151 234.168 387.293 232.805 391.669 230.079C396.045 227.245 399.436 223.375 401.843 218.469C404.25 213.454 405.453 207.73 405.453 201.298C405.453 194.757 404.25 189.033 401.843 184.127C399.436 179.221 396.045 175.405 391.669 172.68C387.293 169.845 382.151 168.428 376.243 168.428C370.992 168.428 366.124 169.627 361.638 172.026C357.153 174.315 353.543 177.695 350.808 182.165C348.182 186.526 346.869 191.813 346.869 198.027V205.55C346.869 211.546 348.237 216.67 350.972 220.922C353.707 225.173 357.317 228.444 361.802 230.733C366.288 233.023 371.101 234.168 376.243 234.168Z" stroke="#073D3D" stroke-width="4" mask="url(#path-6-outside-1_205_3)"/>
</svg>
